<svg xmlns="http://www.w3.org/2000/svg" viewBox="0 0 725.81 555.02"><defs><style>.cls-1{fill:#cb5302;}.cls-2{fill:#191919;}</style></defs><g id="Layer_2" data-name="Layer 2"><g id="Layer_9" data-name="Layer 9"><path class="cls-1" d="M351.1,490.66l9.33-8.71a1.91,1.91,0,0,0,0-2.78c-2.34-2.24-3.74-4.82-3.43-8.14a9.19,9.19,0,0,1,3.28-6.28,10.68,10.68,0,0,1,13.85-.13,9.13,9.13,0,0,1,3.41,8.24,9.86,9.86,0,0,1-3.34,6.27,1.91,1.91,0,0,0,0,2.74l4.92,4.7,1.79-1.91a2.49,2.49,0,0,1,3.53-.12l1.1,1a2,2,0,0,1-.1,3l-2.36,1.95,6,5.47a2.4,2.4,0,0,1,.05,3.52l-1,.94a2.4,2.4,0,0,1-3.34,0L380.36,496a1.83,1.83,0,0,0-2.5,0h0q-4.93,4.63-9.86,9.29c-.78.74-1.16.88-3-2.05a35,35,0,0,0-13.16-11.8C351.5,491.27,351.44,491.11,351.1,490.66Zm21-1.73L369,486a2.65,2.65,0,0,0-3.66,0L362.08,489a2.38,2.38,0,0,0,0,3.45l3.14,3a2.9,2.9,0,0,0,4,0l2.83-2.72A2.65,2.65,0,0,0,372.06,488.93Zm-4.82-21.29a4.23,4.23,0,1,0,.06,8.44,4.23,4.23,0,1,0-.06-8.44Z"/><path class="cls-2" d="M157.24,499h-6.71a2.15,2.15,0,0,1-2.16-2.16V483.48a5.52,5.52,0,0,0-5.52-5.52h-13a2.16,2.16,0,0,0-2.16,2.16v16.67a2.16,2.16,0,0,1-2.16,2.16h-6.75a2.16,2.16,0,0,1-2.16-2.16V452.48a2.16,2.16,0,0,1,2.16-2.16h6.75a2.16,2.16,0,0,1,2.16,2.16v14.74a2.16,2.16,0,0,0,2.16,2.16h13a5.52,5.52,0,0,0,5.52-5.52v-8a5.52,5.52,0,0,1,5.51-5.52h0a5.52,5.52,0,0,1,5.52,5.52v41A2.16,2.16,0,0,1,157.24,499Z"/><path class="cls-2" d="M201.77,499H173.44a.86.86,0,0,1-.87-.86V454.54a4.23,4.23,0,0,1,4.23-4.22h21.61a4.22,4.22,0,0,1,4.22,4.22h0a4.22,4.22,0,0,1-4.22,4.23H187.87a4.22,4.22,0,0,0-4.23,4.22v2.23a4.23,4.23,0,0,0,4.23,4.23h9.22a4.22,4.22,0,0,1,4.22,4.22h0a4.22,4.22,0,0,1-4.22,4.23h-9.22a4.22,4.22,0,0,0-4.23,4.22v7.45a.87.87,0,0,0,.87.87h17.26a.86.86,0,0,1,.86.87v6.78A.85.85,0,0,1,201.77,499Z"/><path class="cls-2" d="M224.59,483.65v12.88a2.42,2.42,0,0,1-2.43,2.42h-5.94a2.69,2.69,0,0,1-2.7-2.69V453.67a3.36,3.36,0,0,1,3.36-3.35h11.85q10.64,0,15.75,3.61t5.1,11a12.27,12.27,0,0,1-2.53,7.63,15,15,0,0,1-4,3.62,3.41,3.41,0,0,0-.85,4.86q7.86,10.94,11.48,15.87a1.31,1.31,0,0,1-1.06,2.08h-8.15a2.84,2.84,0,0,1-2.38-1.27l-10.61-15.9a3.36,3.36,0,0,0-2.79-1.49H228A3.35,3.35,0,0,0,224.59,483.65Zm0-15.1a3.35,3.35,0,0,0,3.36,3.36h.21q5.25,0,7.75-1.63a5.7,5.7,0,0,0,2.5-5.12,5.22,5.22,0,0,0-2.56-4.93q-2.55-1.46-7.9-1.46h0a3.35,3.35,0,0,0-3.36,3.35Z"/><path class="cls-2" d="M281,499H271.8a.93.93,0,0,1-.94-.93V463.19a4.29,4.29,0,0,0-4.29-4.29H261a4.29,4.29,0,0,1-4.29-4.29h0a4.29,4.29,0,0,1,4.29-4.29h30.83a4.29,4.29,0,0,1,4.29,4.29h0a4.29,4.29,0,0,1-4.29,4.29h-5.59a4.29,4.29,0,0,0-4.29,4.29V498A.93.93,0,0,1,281,499Z"/><path class="cls-2" d="M335,485.45a12.26,12.26,0,0,1-5.09,10.38q-5.08,3.8-14.16,3.79a36.81,36.81,0,0,1-12.56-2,3.41,3.41,0,0,1-2.22-3.21v-2.31a3.42,3.42,0,0,1,4.56-3.21c1.62.57,3.08,1,4.38,1.34a28.77,28.77,0,0,0,6.7.89,10.11,10.11,0,0,0,5.59-1.29,4.35,4.35,0,0,0,1.94-3.86,4,4,0,0,0-.86-2.55,9.32,9.32,0,0,0-2.51-2.14A65.83,65.83,0,0,0,314,478a32.37,32.37,0,0,1-7.17-4,15.24,15.24,0,0,1-3.82-4.49,12,12,0,0,1-1.43-6,12.21,12.21,0,0,1,4.69-10.15q4.69-3.69,13-3.69a32.81,32.81,0,0,1,7.77.9c1.36.33,2.75.74,4.19,1.22a3.41,3.41,0,0,1,2,4.63l-.79,1.79a3.42,3.42,0,0,1-4.23,1.84c-1.51-.51-2.84-.9-4-1.16a23.38,23.38,0,0,0-5.38-.64,7.48,7.48,0,0,0-4.82,1.37,4.35,4.35,0,0,0-1.67,3.56,4.2,4.2,0,0,0,.67,2.38,7.49,7.49,0,0,0,2.16,2,69.22,69.22,0,0,0,7,3.41q7.32,3.25,10,6.53A12.21,12.21,0,0,1,335,485.45Z"/><path class="cls-2" d="M432.8,498.88H405.5a2,2,0,0,1-2-2V452.25a2,2,0,0,1,2-2h27.3a2,2,0,0,1,2,2v4.45a2,2,0,0,1-2,2H417a2,2,0,0,0-2,2v6.67a2,2,0,0,0,2,2h14.41a2,2,0,0,1,2,2v4.45a2,2,0,0,1-2,2H417a2,2,0,0,0-2,2v8.55a2,2,0,0,0,2,2H432.8a2,2,0,0,1,2,2v4.51A2,2,0,0,1,432.8,498.88Z"/><path class="cls-2" d="M478.23,485.38a12.09,12.09,0,0,1-5.29,10.38q-5.31,3.78-14.75,3.79A39.55,39.55,0,0,1,445,497.48a3.29,3.29,0,0,1-2.2-3.13v-4.46a2,2,0,0,1,2.64-1.83,60.15,60.15,0,0,0,6.67,2.07,30.58,30.58,0,0,0,7,.9,10.76,10.76,0,0,0,5.81-1.3,4.16,4.16,0,0,0,2-3.27,5,5,0,0,0-.78-3,9.45,9.45,0,0,0-2.7-2.26,74.74,74.74,0,0,0-7.05-3.29,34.72,34.72,0,0,1-7.47-4,15.56,15.56,0,0,1-4-4.5,11.69,11.69,0,0,1-1.49-6,12,12,0,0,1,4.89-10.15q4.89-3.69,13.52-3.69a35.35,35.35,0,0,1,8.08.9c1.15.26,2.32.58,3.52.95a4.22,4.22,0,0,1,2.57,5.81l-.15.32a4.22,4.22,0,0,1-5.09,2.26c-1.39-.45-2.63-.79-3.71-1a25.85,25.85,0,0,0-5.6-.63,8.09,8.09,0,0,0-5,1.36,4.32,4.32,0,0,0-1.74,3.56,4,4,0,0,0,.7,2.38,7.47,7.47,0,0,0,2.25,2,76,76,0,0,0,7.31,3.41q7.62,3.26,10.45,6.53A11.9,11.9,0,0,1,478.23,485.38Z"/><path class="cls-2" d="M520.18,485.38a12.1,12.1,0,0,1-5.3,10.38q-5.29,3.78-14.74,3.79a39.66,39.66,0,0,1-13.2-2.07,3.3,3.3,0,0,1-2.2-3.12V490a2,2,0,0,1,2.7-1.9,56.18,56.18,0,0,0,6.62,2.06,30.5,30.5,0,0,0,7,.9,10.77,10.77,0,0,0,5.82-1.3,4.14,4.14,0,0,0,1.9-2.66,5.19,5.19,0,0,0-1-4.06,10.43,10.43,0,0,0-2.35-1.83,72.28,72.28,0,0,0-7.05-3.29,34.72,34.72,0,0,1-7.47-4,15.56,15.56,0,0,1-4-4.5,11.69,11.69,0,0,1-1.49-6,12,12,0,0,1,4.89-10.15q4.89-3.69,13.52-3.69a35.44,35.44,0,0,1,8.09.9c1.08.25,2.19.55,3.32.89a4.38,4.38,0,0,1,2.68,6.05h0a4.39,4.39,0,0,1-5.3,2.35c-1.34-.42-2.53-.75-3.57-1a25.76,25.76,0,0,0-5.59-.63,8.07,8.07,0,0,0-5,1.36,4.3,4.3,0,0,0-1.75,3.56,4.06,4.06,0,0,0,.71,2.38,7.47,7.47,0,0,0,2.25,2,75.41,75.41,0,0,0,7.3,3.41q7.62,3.26,10.45,6.53A11.91,11.91,0,0,1,520.18,485.38Z"/><path class="cls-2" d="M558.87,498.88H533.42a3.39,3.39,0,0,1-3.39-3.39v-41a4.22,4.22,0,0,1,4.23-4.22h22.85a4.22,4.22,0,0,1,4.23,4.22h0a4.23,4.23,0,0,1-4.23,4.23H545.78a4.22,4.22,0,0,0-4.22,4.22v6.45h15.56a2.85,2.85,0,0,1,2.84,2.85v2.44a3.15,3.15,0,0,1-3.16,3.16H541.56v12.55h17.21a2.57,2.57,0,0,1,2.57,2.56v3.48A2.47,2.47,0,0,1,558.87,498.88Z"/><path class="cls-2" d="M611,498.88h-6.52a2,2,0,0,1-1.65-.86l-11.39-16.58a.79.79,0,0,0-1.31,0L579.54,496.9a4.56,4.56,0,0,1-3.76,2H571.3a2.8,2.8,0,0,1-2.28-4.43l14.52-20.19a.8.8,0,0,0,0-.93L572.69,458.2a5,5,0,0,1,4.08-7.95H577a5,5,0,0,1,4.18,2.23l9.55,14.26a.79.79,0,0,0,1.33,0l9.34-14.23a5,5,0,0,1,4.2-2.26h0a5,5,0,0,1,4.1,7.92L598.6,473.89a.8.8,0,0,0,0,.94l14.67,19.58A2.8,2.8,0,0,1,611,498.88Z"/><path class="cls-2" d="M252.25,552.39v-27a2.2,2.2,0,0,1,2.2-2.21H257a2.2,2.2,0,0,1,2.2,2.21V548a2.21,2.21,0,0,0,2.21,2.2H275a2.2,2.2,0,0,1,2.21,2.2h0a2.2,2.2,0,0,1-2.21,2.2H254.45A2.19,2.19,0,0,1,252.25,552.39Z"/><path class="cls-2" d="M310.68,554,307,546.47a1.06,1.06,0,0,0-1-.6H291.12a1.09,1.09,0,0,0-1,.61l-3.58,7.5a1.06,1.06,0,0,1-1,.61h-4.91a1.07,1.07,0,0,1-1-1.55l14.84-29.4a1.07,1.07,0,0,1,1-.59h6.25a1.09,1.09,0,0,1,1,.59L317.58,553a1.07,1.07,0,0,1-1,1.55h-5A1.06,1.06,0,0,1,310.68,554Zm-7.48-12.55a1.07,1.07,0,0,0,1-1.52l-3.27-7c-.3-.57-.7-1.47-1.21-2.7l0,0a1.07,1.07,0,0,0-2,0c-.39,1-.85,2-1.36,3.1l-3.13,6.65a1.07,1.07,0,0,0,1,1.53Z"/><path class="cls-2" d="M357.09,554.59H352a2.35,2.35,0,0,1-1.8-.84L330,529.56h-.23l.14,1.4a73,73,0,0,1,.41,7.31v14a2.35,2.35,0,0,1-2.35,2.35h-1.62a2.35,2.35,0,0,1-2.35-2.35V525.53a2.36,2.36,0,0,1,2.35-2.35h5a2.37,2.37,0,0,1,1.8.84l20.17,24.06h.18c0-.33-.12-1.52-.24-3.6s-.17-3.68-.17-4.84V525.53a2.35,2.35,0,0,1,2.35-2.35h1.67a2.35,2.35,0,0,1,2.35,2.35v26.71A2.35,2.35,0,0,1,357.09,554.59Z"/><path class="cls-2" d="M404.15,554.59h-5.61a2,2,0,0,1-1.53-.71l-20.33-24.32h-.23l.14,1.4a73,73,0,0,1,.41,7.31V552.6a2,2,0,0,1-2,2h-2.34a2,2,0,0,1-2-2V525.17a2,2,0,0,1,2-2h5.53a2,2,0,0,1,1.52.71L400,548.08h.17c0-.33-.11-1.52-.23-3.6s-.17-3.68-.17-4.84V525.17a2,2,0,0,1,2-2h2.39a2,2,0,0,1,2,2V552.6A2,2,0,0,1,404.15,554.59Z"/><path class="cls-2" d="M417.38,552.22V525.56a2.38,2.38,0,0,1,2.38-2.38H422a2.39,2.39,0,0,1,2.38,2.38v26.66a2.38,2.38,0,0,1-2.38,2.37h-2.2A2.37,2.37,0,0,1,417.38,552.22Z"/><path class="cls-2" d="M468.47,554.59H463.7a2.52,2.52,0,0,1-2-.92l-20.17-24.11h-.23l.15,1.4a72.8,72.8,0,0,1,.4,7.31V552a2.55,2.55,0,0,1-2.56,2.56h-1.19a2.55,2.55,0,0,1-2.56-2.56V525.75a2.56,2.56,0,0,1,2.56-2.57h4.68a2.58,2.58,0,0,1,2,.92l20.1,24h.18c0-.33-.12-1.52-.24-3.6s-.17-3.68-.17-4.84V525.75a2.57,2.57,0,0,1,2.56-2.57h1.25a2.57,2.57,0,0,1,2.57,2.57V552A2.56,2.56,0,0,1,468.47,554.59Z"/><path class="cls-2" d="M239.78,525.59q-4-2.4-11.95-2.41H218a2.42,2.42,0,0,0-2.42,2.43v10.77a2.43,2.43,0,0,1-2.43,2.43H120.37a2.42,2.42,0,0,0-2.42,2.43v3a2.42,2.42,0,0,0,2.52,2.42L213,543.18a2.44,2.44,0,0,1,2.53,2.43v6.55a2.42,2.42,0,0,0,2.42,2.43h2.11a2.43,2.43,0,0,0,2.43-2.43v-6.89a2.42,2.42,0,0,1,2.42-2.43h2q8.07,0,12.43-2.62a8.31,8.31,0,0,0,4.36-7.54A7.77,7.77,0,0,0,239.78,525.59Zm-5.7,11.56c-1.67.92-4.28,1.37-7.86,1.37H225a2.42,2.42,0,0,1-2.42-2.43v-6.18a2.42,2.42,0,0,1,2.42-2.43h2.41c3.16,0,5.49.45,7,1.33a4.4,4.4,0,0,1,2.24,4A4.6,4.6,0,0,1,234.08,537.15Z"/><path class="cls-2" d="M613,539.17v4.22a2.37,2.37,0,0,1-2.42,2.36l-92.77-2.45a2.36,2.36,0,0,0-2.41,2.36v5.78a2.35,2.35,0,0,1-1.85,2.3c-1.9.4-3.75.7-5.53.9a72.58,72.58,0,0,1-7.64.38q-9.68,0-14.92-4.22t-5.23-11.91A13.85,13.85,0,0,1,486.09,527q5.91-4.29,16.28-4.29A43,43,0,0,1,512,523.8a2.35,2.35,0,0,1,1.47,3.46h0a2.33,2.33,0,0,1-2.66,1.1,31.79,31.79,0,0,0-8.64-1.22q-6.81,0-10.78,3.16a10.46,10.46,0,0,0-4,8.63q0,5.76,3.58,8.76c2.37,2,5.8,3,10.26,3a44.26,44.26,0,0,0,5.13-.32,2.37,2.37,0,0,0,2.09-2.35v-2.65a2.36,2.36,0,0,0-2.3-2.36l-5-.13a2.35,2.35,0,0,1-2.29-2.36v-1.34a2.35,2.35,0,0,1,2.35-2.36H610.59A2.36,2.36,0,0,1,613,539.17Z"/><path d="M710.75,247.31h0a15,15,0,0,1-7.94-2.27L370.9,38.64a15,15,0,0,0-15.87,0L164.45,157.16l-50,31.09L23.12,245a15,15,0,0,1-7.94,2.27h-.12c-15.1,0-20.78-19.77-8-27.78L114.45,152.4l50-31.27,190-118.84a15,15,0,0,1,15.93,0L718.7,219.52C731.53,227.52,725.86,247.31,710.75,247.31Z"/><path class="cls-1" d="M347.45,131.68V400.94a15.38,15.38,0,0,1-15.38,15.37H312.82a15.37,15.37,0,0,1-15.37-15.37V308.68a15.38,15.38,0,0,0-15.38-15.37H179.82a15.37,15.37,0,0,0-15.37,15.37v92.26a15.38,15.38,0,0,1-15.38,15.37H129.82a15.37,15.37,0,0,1-15.37-15.37V227.57a15.36,15.36,0,0,1,7.25-13l19.25-12a15.38,15.38,0,0,1,23.5,13.05v12.35a15.37,15.37,0,0,0,15.37,15.37H282.07a15.38,15.38,0,0,0,15.38-15.37V131.68a15.37,15.37,0,0,1,15.37-15.37h19.25A15.38,15.38,0,0,1,347.45,131.68Z"/><path d="M164.45,105.11v16l-50,31.27V105.11a7.8,7.8,0,0,1,7.79-7.8h34.41A7.8,7.8,0,0,1,164.45,105.11Z"/><path class="cls-1" d="M427.45,307.67V352a14.35,14.35,0,0,0,14.36,14.36H600.58A14.36,14.36,0,0,1,615,380.67V402a14.36,14.36,0,0,1-14.37,14.36H391.81A14.35,14.35,0,0,1,377.45,402V130.67a14.35,14.35,0,0,1,14.36-14.36h50.4a14.44,14.44,0,0,1,7.59,2.16L484,139.75c12.27,7.63,6.87,26.56-7.58,26.56H441.81a14.35,14.35,0,0,0-14.36,14.36V229a14.35,14.35,0,0,0,14.36,14.36H600.58A14.36,14.36,0,0,1,615,257.67V279a14.36,14.36,0,0,1-14.37,14.36H441.81A14.35,14.35,0,0,0,427.45,307.67Z"/></g></g></svg>