<svg xmlns="http://www.w3.org/2000/svg" viewBox="0 0 835.09 604.74"><defs><style>.cls-1{fill:#cb5302;}.cls-2,.cls-3{fill:#191919;}.cls-3{font-size:36px;font-family:OpenSans-SemiBold, Open Sans;font-weight:600;}</style></defs><g id="Layer_2" data-name="Layer 2"><g id="Layer_9" data-name="Layer 9"><polygon class="cls-1" points="394.98 131.73 394.98 419.73 354.98 419.73 354.98 295.73 196.98 295.73 196.98 419.73 156.98 419.73 156.98 222.64 196.98 198.67 196.98 255.73 354.98 255.73 354.98 131.73 394.98 131.73"/><polyline class="cls-1" points="684.48 421.23 446.48 420.73 446.48 132.73 515.4 132.73 583.79 171.11 489.56 171.11 489.56 256.73 682.89 256.73 682.89 296.73 489.56 296.73 489.56 382.73 683.97 382.73 683.95 420.73"/><path class="cls-1" d="M409.66,513.09l9.53-8.91c-2.84-2.23-4.68-4.81-4.35-8.31a8.07,8.07,0,0,1,2.87-5.51,9.35,9.35,0,0,1,12.12-.11,8.05,8.05,0,0,1,3,7.23c-.26,2.88-2.1,4.9-4.21,6.64l5.62,5.39,3.06-3.29,4,3.78-3.6,3,7,6.32-4,3.8-6.45-6.3c-.54.44-.87.69-1.17,1q-4.33,4.07-8.63,8.14c-.43.4-.71.6-1.25.09-4.35-4.14-8.73-8.25-13.09-12.37A5.36,5.36,0,0,1,409.66,513.09Zm20,.15-6-5.81-6.07,5.7,6.09,5.87Zm-5.93-20.34a3.71,3.71,0,1,0,.06,7.4,3.71,3.71,0,1,0-.06-7.4Z"/><path class="cls-2" d="M203.77,527.07h-12V504.31H169.24v22.76H157.18V474.33h12.06V495h22.51V474.33h12Z"/><path class="cls-2" d="M250.86,527.07H218.12V474.33h32.74v9.16H230.17v11.58h19.25v9.17H230.17v13.6h20.69Z"/><path class="cls-2" d="M274.78,506.83v20.24H262.72V474.33h16.57q11.58,0,17.15,3.91T302,490.13a13.32,13.32,0,0,1-2.76,8.28,18.09,18.09,0,0,1-7.82,5.68q12.84,17.79,16.73,23H294.77L281.2,506.83Zm0-9.09h3.89q5.71,0,8.44-1.77a6.14,6.14,0,0,0,2.72-5.55,5.66,5.66,0,0,0-2.78-5.34q-2.79-1.59-8.62-1.59h-3.65Z"/><path class="cls-2" d="M337.23,527.07H325.18V483.64H309.74v-9.31h42.93v9.31H337.23Z"/><path class="cls-2" d="M395,512.43a13.23,13.23,0,0,1-5.54,11.25q-5.54,4.11-15.42,4.11a38.58,38.58,0,0,1-16.1-3.17V514.23a70,70,0,0,0,9.74,3.36,31.45,31.45,0,0,0,7.3,1,11,11,0,0,0,6.08-1.41,4.68,4.68,0,0,0,2.12-4.18,4.38,4.38,0,0,0-.93-2.76,10.24,10.24,0,0,0-2.74-2.33,71.82,71.82,0,0,0-7.37-3.57,35.47,35.47,0,0,1-7.82-4.37,16.61,16.61,0,0,1-4.16-4.87,13,13,0,0,1-1.56-6.49,13.2,13.2,0,0,1,5.12-11q5.12-4,14.13-4a36.31,36.31,0,0,1,8.46,1,60.93,60.93,0,0,1,8.42,2.75L390.82,486a61.31,61.31,0,0,0-7.52-2.42,26.51,26.51,0,0,0-5.86-.68,8.15,8.15,0,0,0-5.25,1.48,4.74,4.74,0,0,0-1.82,3.86,4.49,4.49,0,0,0,.74,2.58,7.88,7.88,0,0,0,2.35,2.13,75.81,75.81,0,0,0,7.64,3.69q8,3.54,10.93,7.09A13.19,13.19,0,0,1,395,512.43Z"/><path class="cls-2" d="M488.59,527H456V474.21h32.61v9.16H468V495h19.17v9.17H468v13.6h20.6Z"/><path class="cls-2" d="M533.83,512.31a13.27,13.27,0,0,1-5.52,11.25q-5.52,4.11-15.36,4.11a38.25,38.25,0,0,1-16-3.17V514.11a69.09,69.09,0,0,0,9.7,3.35,30.72,30.72,0,0,0,7.26,1A10.92,10.92,0,0,0,520,517a4.71,4.71,0,0,0,2.11-4.18,4.38,4.38,0,0,0-.93-2.76,10,10,0,0,0-2.73-2.33,70.31,70.31,0,0,0-7.34-3.57,35.38,35.38,0,0,1-7.79-4.37,16.54,16.54,0,0,1-4.14-4.87,13,13,0,0,1-1.55-6.49,13.25,13.25,0,0,1,5.09-11q5.1-4,14.08-4a35.51,35.51,0,0,1,8.42,1,60.6,60.6,0,0,1,8.39,2.75l-3.87,8.69a60.64,60.64,0,0,0-7.5-2.42,26.18,26.18,0,0,0-5.83-.68,8.11,8.11,0,0,0-5.23,1.48,4.74,4.74,0,0,0-1.82,3.86,4.57,4.57,0,0,0,.74,2.58,8,8,0,0,0,2.34,2.13A76.37,76.37,0,0,0,520,496.5q7.95,3.54,10.89,7.09A13.24,13.24,0,0,1,533.83,512.31Z"/><path class="cls-2" d="M577.52,512.31A13.27,13.27,0,0,1,572,523.56q-5.52,4.11-15.36,4.11a38.25,38.25,0,0,1-16-3.17V514.11a68.66,68.66,0,0,0,9.7,3.35,30.72,30.72,0,0,0,7.26,1,10.86,10.86,0,0,0,6.06-1.41,4.7,4.7,0,0,0,2.12-4.18,4.33,4.33,0,0,0-.94-2.76,9.8,9.8,0,0,0-2.72-2.33,71.39,71.39,0,0,0-7.34-3.57,35.14,35.14,0,0,1-7.79-4.37,16.54,16.54,0,0,1-4.14-4.87,13,13,0,0,1-1.55-6.49,13.22,13.22,0,0,1,5.09-11q5.08-4,14.08-4a35.51,35.51,0,0,1,8.42,1,61,61,0,0,1,8.39,2.75l-3.88,8.69a60.57,60.57,0,0,0-7.49-2.42,26.24,26.24,0,0,0-5.83-.68,8.11,8.11,0,0,0-5.23,1.48A4.74,4.74,0,0,0,553,488.1a4.57,4.57,0,0,0,.74,2.58,8,8,0,0,0,2.34,2.13,76.37,76.37,0,0,0,7.61,3.69q7.95,3.54,10.88,7.09A13.19,13.19,0,0,1,577.52,512.31Z"/><path class="cls-2" d="M620.39,527H587.78V474.21h32.61v9.16h-20.6V495H619v9.17H599.79v13.6h20.6Z"/><path class="cls-2" d="M678,527H664.27l-13.16-20-13.17,20H625.08l18.78-27.2-17.58-25.54h13.25l12.19,19,12-19h12.94l-17.78,26.15Z"/><text class="cls-3" transform="translate(326.82 594.58) scale(1.07 1)">PLANNING</text><polygon class="cls-2" points="333.65 585.07 156.65 585.07 156.65 584.07 333.65 581.07 333.65 585.07"/><polygon class="cls-2" points="680.65 584.73 513.65 585.07 513.65 580.07 680.65 584.07 680.65 584.73"/><line x1="144.98" y1="160.61" x2="134.33" y2="166.99"/><polygon class="cls-2" points="835.09 241.07 755.15 241.07 417.96 46.19 80.05 241.07 0 241.07 156.65 150.72 156.65 99.07 196.65 99.07 196.65 127.65 377.97 23.08 417.98 0 457.97 23.11 835.09 241.07"/></g></g></svg>