<?xml version="1.0" encoding="UTF-8"?><svg id="Layer_2" xmlns="http://www.w3.org/2000/svg" viewBox="0 0 1005.98 536.18"><defs><style>.cls-1{stroke-width:11px;}.cls-1,.cls-2,.cls-3,.cls-4,.cls-5{stroke-miterlimit:10;}.cls-1,.cls-3,.cls-5{fill:none;stroke:#000;}.cls-2,.cls-3{stroke-width:10px;}.cls-2,.cls-4{fill:#cb5302;stroke:#cb5302;}.cls-5{stroke-width:15px;}</style></defs><g id="Layer_1-2"><g><path d="M347,297.35h18.03v65.58h-18.03v-65.58Zm8.75,0h73.8v8.75h-73.8v-8.75Zm0,28.64h64.08v8.75h-64.08v-8.75Zm0,28.19h73.8v8.75h-73.8v-8.75Z"/><path d="M476.22,362.71c-5.54-.6-10.71-1.5-15.51-2.71-4.8-1.2-9.3-2.71-13.48-4.51l11.22-7.04c4.89,2.17,10.28,3.79,16.17,4.87,5.89,1.08,12.29,1.62,19.18,1.62,9.31,0,16.53-.88,21.65-2.64,5.13-1.76,7.69-4.25,7.69-7.46v-.05c0-2.28-1.16-4.1-3.49-5.44-2.33-1.34-5.33-2.33-9.02-2.98-3.68-.65-8.44-1.24-14.27-1.78-.18-.03-.37-.05-.57-.05s-.4-.01-.57-.05l-1.33-.14c-8.6-.75-15.6-1.6-20.99-2.55-5.39-.95-10-2.68-13.83-5.19-3.83-2.51-5.75-6.08-5.75-10.71v-.05c0-4.06,1.78-7.53,5.35-10.4,3.56-2.87,8.76-5.06,15.6-6.56,6.83-1.5,15.05-2.26,24.66-2.26,4.6,0,9.12,.26,13.57,.77,4.45,.51,8.84,1.27,13.17,2.28,4.33,1.01,8.59,2.28,12.77,3.81l-10.25,7.31c-4.89-1.83-9.77-3.21-14.63-4.13-4.86-.92-9.74-1.38-14.63-1.38-8.78,0-15.6,.89-20.46,2.68-4.86,1.79-7.29,4.32-7.29,7.6v.05c0,2.26,1.25,4.03,3.76,5.32,2.5,1.29,5.63,2.25,9.37,2.86,3.74,.62,8.94,1.26,15.6,1.92,.23,.03,.46,.05,.66,.07,.21,.02,.43,.04,.66,.07,.29,.03,.62,.06,.97,.09,.35,.03,.68,.06,.97,.09,7.78,.81,14.27,1.77,19.49,2.89,5.22,1.11,9.57,2.91,13.08,5.39,3.5,2.48,5.26,5.87,5.26,10.17v.09c0,4-1.85,7.42-5.57,10.26-3.71,2.84-9.09,5.01-16.13,6.5-7.04,1.49-15.54,2.23-25.5,2.23-6.19,0-12.05-.3-17.59-.9Z"/><path d="M584.14,362.71c-5.54-.6-10.71-1.5-15.51-2.71-4.8-1.2-9.3-2.71-13.48-4.51l11.23-7.04c4.89,2.17,10.28,3.79,16.17,4.87,5.89,1.08,12.29,1.62,19.18,1.62,9.31,0,16.53-.88,21.65-2.64,5.13-1.76,7.69-4.25,7.69-7.46v-.05c0-2.28-1.16-4.1-3.49-5.44-2.33-1.34-5.33-2.33-9.02-2.98-3.68-.65-8.44-1.24-14.27-1.78-.18-.03-.37-.05-.57-.05s-.4-.01-.57-.05l-1.33-.14c-8.6-.75-15.6-1.6-20.99-2.55-5.39-.95-10-2.68-13.83-5.19s-5.74-6.08-5.74-10.71v-.05c0-4.06,1.78-7.53,5.35-10.4,3.56-2.87,8.76-5.06,15.6-6.56,6.83-1.5,15.05-2.26,24.66-2.26,4.6,0,9.12,.26,13.57,.77,4.45,.51,8.84,1.27,13.17,2.28,4.33,1.01,8.59,2.28,12.77,3.81l-10.25,7.31c-4.89-1.83-9.77-3.21-14.63-4.13s-9.74-1.38-14.63-1.38c-8.78,0-15.6,.89-20.46,2.68-4.86,1.79-7.29,4.32-7.29,7.6v.05c0,2.26,1.25,4.03,3.76,5.32,2.5,1.29,5.63,2.25,9.37,2.86s8.94,1.26,15.6,1.92c.23,.03,.46,.05,.66,.07,.21,.02,.43,.04,.66,.07,.29,.03,.62,.06,.97,.09,.35,.03,.68,.06,.97,.09,7.78,.81,14.27,1.77,19.49,2.89,5.22,1.11,9.57,2.91,13.08,5.39,3.5,2.48,5.26,5.87,5.26,10.17v.09c0,4-1.86,7.42-5.57,10.26-3.71,2.84-9.09,5.01-16.13,6.5-7.04,1.49-15.54,2.23-25.5,2.23-6.19,0-12.05-.3-17.59-.9Z"/><path d="M672.79,297.35h18.03v65.58h-18.03v-65.58Zm8.75,0h73.8v8.75h-73.8v-8.75Zm0,28.64h64.08v8.75h-64.08v-8.75Zm0,28.19h73.8v8.75h-73.8v-8.75Z"/><path d="M810.87,325.46l32.67-28.1h20.5l-43.05,35.5-34.91,30.09h-20.49l45.29-37.48Zm.81,8.66l-2.77-2.26-42.24-34.51h20.49l31.41,26.7,2.95,2.44,44.48,36.45h-20.5l-33.83-28.82Z"/></g><line class="cls-2" x1="500" y1="3.68" x2="361" y2="131.68"/><line class="cls-2" x1="268.02" y1="228.68" x2="106.5" y2="397.18"/><line class="cls-1" x1="109.76" y1="400.45" x2="732" y2="400.45"/><line class="cls-3" x1="733" y1="506.68" x2="1005.98" y2="506.68"/><line class="cls-3" x1="0" y1="506.68" x2="275.98" y2="506.68"/><g><path class="cls-4" d="M267,473.31h10.33v61.73h-10.33v-61.73Zm5.32,29.55h23.55c2.23,0,4.19-.44,5.88-1.32,1.69-.88,3-2.12,3.93-3.74,.93-1.61,1.39-3.47,1.39-5.56s-.46-3.99-1.39-5.6c-.93-1.61-2.24-2.87-3.93-3.76-1.69-.89-3.65-1.34-5.88-1.34h-23.55v-8.24h23.2c4.39,0,8.26,.79,11.6,2.36,3.34,1.57,5.93,3.79,7.77,6.64,1.84,2.86,2.76,6.17,2.76,9.93s-.92,7.07-2.76,9.91c-1.84,2.84-4.43,5.05-7.77,6.6-3.34,1.56-7.21,2.33-11.6,2.33h-23.2v-8.24Z"/><path class="cls-4" d="M330.56,473.31h10.33v61.73h-10.33v-61.73Zm5.17,53.49h42.14v8.24h-42.14v-8.24Z"/><path class="cls-4" d="M411.1,473.31h8.81l27.15,61.73h-11.14l-20.41-49.8-20.41,49.8h-11.14l27.15-61.73Zm-14.64,39.95h38.75v8.24h-38.75v-8.24Z"/><path class="cls-4" d="M458.2,473.31h9.37l36.01,47.72-1.22,1.1v-48.82h10.23v61.68h-9.47l-35.91-47,1.22-1.1v48.1h-10.23v-61.68Z"/><path class="cls-4" d="M530.83,473.31h9.37l36.01,47.72-1.22,1.1v-48.82h10.23v61.68h-9.47l-35.91-47,1.22-1.1v48.1h-10.23v-61.68Z"/><path class="cls-4" d="M613.79,535.04h-10.33v-61.73h10.33v61.73Z"/><path class="cls-4" d="M632.03,473.31h9.37l36.01,47.72-1.22,1.1v-48.82h10.23v61.68h-9.47l-35.91-47,1.22-1.1v48.1h-10.23v-61.68Z"/><path class="cls-4" d="M755,501.8v10.78c0,4.58-1.06,8.63-3.19,12.12-2.13,3.5-5.14,6.2-9.04,8.11-3.9,1.91-8.42,2.87-13.55,2.87s-9.77-.9-13.7-2.7c-3.93-1.8-6.98-4.34-9.14-7.62-2.16-3.28-3.24-7.09-3.24-11.42v-18.21c0-4.58,1.06-8.62,3.19-12.1s5.14-6.18,9.04-8.09c3.9-1.91,8.42-2.87,13.55-2.87,4.22,0,8.11,.76,11.67,2.27,3.56,1.51,6.54,3.66,8.94,6.43,2.4,2.77,4.02,5.99,4.86,9.64h-11.19c-.61-2.07-1.64-3.84-3.09-5.33-1.45-1.49-3.16-2.62-5.12-3.4-1.96-.78-3.98-1.17-6.08-1.17-3.04,0-5.71,.61-8,1.83-2.3,1.22-4.07,2.92-5.32,5.12-1.25,2.19-1.87,4.75-1.87,7.66v18.21c0,2.66,.64,4.99,1.92,6.98,1.28,2,3.1,3.54,5.44,4.65,2.35,1.1,5.06,1.66,8.13,1.66s5.71-.57,8-1.72c2.3-1.15,4.07-2.81,5.32-4.99,1.25-2.18,1.87-4.77,1.87-7.77v-2.67h-14.94v-8.28h25.53Z"/></g><g><path class="cls-4" d="M259.91,166.64h14.89v81.2h-14.89v-81.2Zm9.27,35.8h58.9v10.83h-58.9v-10.83Zm51.02-35.8h14.89v81.2h-14.89v-81.2Z"/><path class="cls-4" d="M361.37,166.64h14.89v81.2h-14.89v-81.2Zm7.23,0h60.94v10.83h-60.94v-10.83Zm0,35.46h52.92v10.83h-52.92v-10.83Zm0,34.9h60.94v10.83h-60.94v-10.83Z"/><path class="cls-4" d="M450.7,166.58h14.89v81.26h-14.89v-81.26Zm6.5,36.08h36.2c2.82,0,5.33-.52,7.52-1.56,2.19-1.04,3.88-2.52,5.07-4.44,1.19-1.92,1.79-4.12,1.79-6.62s-.6-4.7-1.79-6.62c-1.19-1.92-2.87-3.4-5.04-4.44-2.17-1.04-4.68-1.56-7.55-1.56h-36.2v-10.83h35.62c6.13,0,11.52,.97,16.17,2.9,4.65,1.94,8.25,4.68,10.8,8.24,2.55,3.56,3.83,7.66,3.83,12.31s-1.29,8.76-3.87,12.31c-2.58,3.56-6.19,6.3-10.84,8.24-4.65,1.94-10.01,2.9-16.09,2.9h-35.62v-10.83Zm28.9,8.32l14.82-2.57,27.15,39.43h-17.66l-24.3-36.86Z"/><path class="cls-4" d="M533.54,166.64h74.88v10.83h-74.88v-10.83Zm30,6.65h14.89v74.56h-14.89v-74.56Z"/><path class="cls-4" d="M637.47,247.56c-4.57-.74-8.84-1.86-12.81-3.35-3.97-1.49-7.68-3.35-11.13-5.58l9.27-8.71c4.04,2.68,8.49,4.69,13.36,6.03,4.87,1.34,10.15,2.01,15.84,2.01,7.69,0,13.65-1.09,17.88-3.27s6.35-5.26,6.35-9.24v-.06c0-2.83-.96-5.07-2.88-6.73-1.92-1.66-4.4-2.88-7.44-3.69-3.04-.8-6.97-1.54-11.79-2.21-.15-.04-.3-.06-.47-.06s-.33-.02-.47-.06l-1.09-.17c-7.1-.93-12.88-1.98-17.33-3.16-4.45-1.17-8.26-3.31-11.42-6.42-3.16-3.11-4.74-7.53-4.74-13.26v-.06c0-5.03,1.47-9.32,4.42-12.87,2.94-3.56,7.24-6.26,12.88-8.13,5.64-1.86,12.43-2.79,20.36-2.79,3.79,0,7.53,.32,11.2,.95,3.67,.63,7.3,1.57,10.88,2.82,3.58,1.25,7.09,2.82,10.55,4.72l-8.47,9.05c-4.04-2.27-8.06-3.97-12.08-5.11-4.01-1.14-8.04-1.7-12.08-1.7-7.25,0-12.88,1.11-16.9,3.32-4.01,2.22-6.02,5.35-6.02,9.41v.06c0,2.79,1.03,4.99,3.1,6.59,2.07,1.6,4.65,2.78,7.74,3.55,3.09,.76,7.38,1.56,12.88,2.37,.19,.04,.38,.07,.55,.08,.17,.02,.35,.05,.55,.08,.24,.04,.51,.07,.8,.11,.29,.04,.56,.07,.8,.11,6.42,1.01,11.79,2.2,16.09,3.57,4.31,1.38,7.91,3.6,10.8,6.67,2.89,3.07,4.34,7.27,4.34,12.59v.11c0,4.95-1.53,9.19-4.6,12.71-3.07,3.52-7.51,6.2-13.32,8.04-5.81,1.84-12.83,2.76-21.06,2.76-5.11,0-9.95-.37-14.52-1.12Z"/></g><line class="cls-2" x1="680" y1="183.68" x2="500" y2="3.68"/><line class="cls-5" x1="1000" y1="505.68" x2="848.5" y2="356.18"/><line class="cls-5" x1="731.5" y1="400.18" x2="816.5" y2="330.18"/></g></svg>